<svg xmlns="http://www.w3.org/2000/svg" viewBox="0 0 128 128"><path class="cls-1" d="M18.5,99.61c0,3.73,2.57,6.77,5.76,6.77H46.45c3.17,0,5.76-3,5.76-6.77s-2.57-6.78-5.76-6.78H24.24C21.07,92.83,18.5,95.86,18.5,99.61Zm98,14.86H113a4.09,4.09,0,0,0,3.46-4.33Zm-105,0h3.47a4.1,4.1,0,0,1-3.47-4.33ZM116.47,64H113a4.09,4.09,0,0,1,3.46,4.33ZM105.29,30.53h-3.47a4.08,4.08,0,0,1,3.47,4.32Zm-93.78-17H15a4.09,4.09,0,0,0-3.47,4.33Z"/><path class="cls-1" d="M118.83,50.55H24.24c-3.17,0-5.75,3-5.75,6.77s2.57,6.77,5.75,6.77h92.23v50.4h-105V13.54H51.8L59.2,27a5.67,5.67,0,0,0,5.07,3.55h41V41c0,3.74,2.57,6.78,5.76,6.78s5.76-3,5.76-6.78V27.27c-.45-5.73-4.54-10.21-9.52-10.21H99.59v0H67.43L59.86,3.27l-.09-.15A5.62,5.62,0,0,0,54.93,0H17.22V0H9.57C4.3,0,0,5.05,0,11.27v.08H0V117.66c.34,5.42,3.93,9.76,8.49,10.34H119c4.65-.25,8.43-4.39,9-9.73V60.72C127.54,55.15,123.63,50.76,118.83,50.55Z"/></g></g></svg>
