<?xml version="1.0" encoding="UTF-8"?><svg version="1.1" width="128px" height="129px" viewBox="0 0 128.0 129.0" xmlns="http://www.w3.org/2000/svg" xmlns:xlink="http://www.w3.org/1999/xlink"><defs><clipPath id="i0"><path d="M14.2222222,0 L14.2222222,128 L0,128 L0,0 L14.2222222,0 Z M113.777778,0 C121.621333,0 128,5.74080015 128,12.8000001 L128,115.2 C128,122.2592 121.621333,128 113.777778,128 L21.3333333,128 L21.3333333,0 Z M106.666667,51.2000001 L42.6666667,51.2000001 L42.6666667,64 L106.666667,64 L106.666667,51.2000001 Z M106.666667,25.6 L42.6666667,25.6 L42.6666667,38.4 L106.666667,38.4 L106.666667,25.6 Z"></path></clipPath></defs><g transform="translate(0.0 0.3333332500000097)"><g clip-path="url(#i0)"><polygon points="0,0 128,0 128,128 0,128 0,0" stroke="none" fill="#000000"></polygon></g></g></svg>