<?xml version="1.0" encoding="UTF-8"?><svg version="1.1" width="128px" height="128px" viewBox="0 0 128.0 128.0" xmlns="http://www.w3.org/2000/svg" xmlns:xlink="http://www.w3.org/1999/xlink"><defs><clipPath id="i0"><path d="M98.4615294,113.230648 L98.4615294,118.153765 C98.4615294,123.591691 94.0532573,128 88.6153781,128 L39.3846219,128 C33.9467427,128 29.5384706,123.591691 29.5384706,118.153765 L29.5384706,113.230648 L98.4615294,113.230648 Z M127.999992,49.2301223 C128.011241,71.2185648 116.725429,91.670787 98.1169141,103.384413 L29.8830859,103.384413 C11.2745711,91.670787 -0.0112412722,71.2185648 8.40235492e-06,49.2301223 L127.999992,49.2301223 Z M92.0959926,1.44142207 C94.0178724,3.36389867 94.0178724,6.48023342 92.0959926,8.40271002 L61.1150777,39.3838876 L47.1876967,39.3838876 L85.1347637,1.44142207 C87.057224,-0.480474024 90.1735323,-0.480474024 92.0959926,1.44142207 Z M117.464601,17.1806283 C118.850824,19.5189988 118.07946,22.5383635 115.741525,23.925299 L89.649224,39.3838876 L70.3359983,39.3838876 L110.719988,15.4575372 C113.058338,14.0713031 116.077678,14.8426737 117.464601,17.1806283 Z"></path></clipPath></defs><g transform="translate(-2.7328085366207233e-05 0.0017083700028024396)"><g clip-path="url(#i0)"><polygon points="3.55271368e-15,-6.66133815e-16 128,-6.66133815e-16 128,128 3.55271368e-15,128 3.55271368e-15,-6.66133815e-16" stroke="none" fill="#000000"></polygon></g></g></svg>