<?xml version="1.0" encoding="UTF-8"?><svg version="1.1" width="128px" height="128px" viewBox="0 0 128.0 128.0" xmlns="http://www.w3.org/2000/svg" xmlns:xlink="http://www.w3.org/1999/xlink"><defs><clipPath id="i0"><path d="M66.154523,57.0449205 L66.1630558,57.0559779 L66.8030131,57.6530753 L83.0920605,76.1078093 C84.7540314,77.9898101 85.0339598,81.2037619 83.7375131,83.5184663 C82.4410663,85.8331708 79.9962857,86.4843937 78.1003933,85.0200415 L77.4775015,84.4340014 L68.2450503,73.9737388 L68.2450503,122.47132 C68.2457373,125.141587 66.7735575,127.430893 64.7466169,127.911541 L63.9786681,128 C61.9212889,127.995556 60.1594066,126.089038 59.7890807,123.466482 L59.7208186,122.47132 L59.7122858,73.9737388 L50.4969002,84.422944 C48.9439865,86.175755 46.6465077,86.2408821 45.0359309,84.5777471 L44.4813012,83.8921907 C43.1261571,81.8825143 43.0723089,78.9052217 44.3533098,76.8154803 L44.8908739,76.0967519 L61.1799213,57.642018 C62.5654116,56.0741264 64.5703752,55.8334722 66.154523,57.0449205 Z M61.7601493,0 C78.8427438,0 93.6470902,14.219765 98.4937004,34.3883898 C115.021665,36.3344851 128,53.926745 128,75.4111956 C128,97.5480304 114.176922,115.659986 96.6847543,116.577747 L95.89974,116.577747 L91.1640557,116.610945 C88.8077979,116.620079 86.8919432,114.152231 86.8848744,111.098825 C86.8778057,108.04542 88.7821996,105.562719 91.1384574,105.553559 L95.8400107,105.531444 L96.4629025,105.520387 C109.313246,104.856945 119.467236,91.5438839 119.467236,75.4111956 C119.467236,58.8030408 108.733018,45.2688321 95.5242984,45.2688321 L95.2597827,45.2688321 C93.2132298,45.3278432 91.4227764,43.4948882 90.9934004,40.9011748 C88.1519899,23.6627505 76.0013332,11.0573601 61.7601493,11.0573601 C46.2817146,11.0573601 33.4313712,25.8742225 32.0149323,45.0034554 C31.8247894,47.6137318 30.2459924,49.691977 28.2349177,49.9792674 C17.0399307,51.5604699 8.52423172,63.4913614 8.52423172,77.5452661 L8.54983001,78.9163787 C9.06179588,93.7332412 18.8232784,105.542502 30.760616,105.542502 L36.844477,105.542502 C39.2007349,105.542502 41.1108593,108.017776 41.1108593,111.071182 C41.1108593,114.124587 39.2007349,116.599862 36.844477,116.599862 L30.760616,116.599862 C14.309446,116.610945 0.750883274,100.212854 0.0255982934,79.2812716 L0,77.6779544 C0,59.2121631 10.179588,43.6102281 23.9941337,39.6848652 C27.3048463,16.950933 43.0733951,0 61.7516166,0 Z"></path></clipPath></defs><g clip-path="url(#i0)"><polygon points="0,0 128,0 128,128 0,128 0,0" stroke="none" fill="#000000"></polygon></g></svg>